<svg width="227" height="35" viewBox="0 0 227 35" fill="none" xmlns="http://www.w3.org/2000/svg">
<path d="M24.152 0.639997V5.104H15.272V34H9.8V5.104H0.872V0.639997H24.152ZM47.0218 34L39.3418 20.656H35.1658V34H29.6938V0.639997H41.2138C43.7738 0.639997 45.9338 1.088 47.6938 1.984C49.4858 2.88 50.8138 4.08 51.6778 5.584C52.5738 7.088 53.0218 8.768 53.0218 10.624C53.0218 12.8 52.3818 14.784 51.1018 16.576C49.8538 18.336 47.9178 19.536 45.2938 20.176L53.5498 34H47.0218ZM35.1658 16.288H41.2138C43.2618 16.288 44.7978 15.776 45.8218 14.752C46.8778 13.728 47.4058 12.352 47.4058 10.624C47.4058 8.896 46.8938 7.552 45.8698 6.592C44.8458 5.6 43.2938 5.104 41.2138 5.104H35.1658V16.288ZM80.1339 27.184H66.1659L63.7659 34H58.0539L70.0059 0.591998H76.3419L88.2939 34H82.5339L80.1339 27.184ZM78.5979 22.72L73.1739 7.216L67.7019 22.72H78.5979ZM122.243 0.639997L109.715 34H103.379L90.8026 0.639997H96.6586L106.547 28.384L116.483 0.639997H122.243ZM132.291 5.056V14.848H143.811V19.312H132.291V29.536H145.251V34H126.819V0.591998H145.251V5.056H132.291ZM157.463 29.584H168.743V34H151.991V0.639997H157.463V29.584ZM178.791 29.584H190.071V34H173.319V0.639997H178.791V29.584ZM209.863 34.336C206.759 34.336 203.895 33.616 201.271 32.176C198.679 30.704 196.615 28.672 195.079 26.08C193.575 23.456 192.823 20.512 192.823 17.248C192.823 13.984 193.575 11.056 195.079 8.464C196.615 5.872 198.679 3.856 201.271 2.416C203.895 0.943997 206.759 0.207997 209.863 0.207997C212.999 0.207997 215.863 0.943997 218.455 2.416C221.079 3.856 223.143 5.872 224.647 8.464C226.151 11.056 226.903 13.984 226.903 17.248C226.903 20.512 226.151 23.456 224.647 26.08C223.143 28.672 221.079 30.704 218.455 32.176C215.863 33.616 212.999 34.336 209.863 34.336ZM209.863 29.584C212.071 29.584 214.039 29.088 215.767 28.096C217.495 27.072 218.839 25.632 219.799 23.776C220.791 21.888 221.287 19.712 221.287 17.248C221.287 14.784 220.791 12.624 219.799 10.768C218.839 8.912 217.495 7.488 215.767 6.496C214.039 5.504 212.071 5.008 209.863 5.008C207.655 5.008 205.687 5.504 203.959 6.496C202.231 7.488 200.871 8.912 199.879 10.768C198.919 12.624 198.439 14.784 198.439 17.248C198.439 19.712 198.919 21.888 199.879 23.776C200.871 25.632 202.231 27.072 203.959 28.096C205.687 29.088 207.655 29.584 209.863 29.584Z" fill="white"/>
</svg>
